# xmcd
#
# Track frame offsets:
#	150
#	26415
#	49842
#	83475
#	110220
#	152487
#	174670
#	193390
#	212447
#	241447
#	270052
#	290185
#
# Disc length: 4322 seconds
#
# Revision: 0
# Processed by: cddbd v1.5.1PL2 Copyright (c) Steve Scherf et al.
# Submitted via: EasyCDDAExtractor 8.2.3.1
#
DISCID=a410e00c
DTITLE=Tinu Heiniger - Mängisch fägt's no and füf Liebeslieder und ei Tango
DYEAR=1900
DGENRE=Pop
TTITLE0=Unterhaltungsbrunz Nr.2
TTITLE1=Heidle
TTITLE2=Ire Beiz
TTITLE3=Ihm si Frou
TTITLE4=Jakob A.
TTITLE5=Die wo überläbt hei
TTITLE6=Hesch du mi gärn
TTITLE7=Erinnerig
TTITLE8=Nacht
TTITLE9=Papschttango
TTITLE10=Abschied
TTITLE11=Warum,wieso
EXTD=
EXTT0=
EXTT1=
EXTT2=
EXTT3=
EXTT4=
EXTT5=
EXTT6=
EXTT7=
EXTT8=
EXTT9=
EXTT10=
EXTT11=
PLAYORDER=
